<?xml version="1.0" encoding="UTF-8" standalone="no"?>
<!-- Created with Inkscape (http://www.inkscape.org/) -->

<svg
   width="125mm"
   height="60mm"
   viewBox="0 0 125 60"
   version="1.1"
   id="svg1"
   inkscape:version="1.4.2 (f4327f4, 2025-05-13)"
   sodipodi:docname="gai-esp_item002_figura4.svg"
   xmlns:inkscape="http://www.inkscape.org/namespaces/inkscape"
   xmlns:sodipodi="http://sodipodi.sourceforge.net/DTD/sodipodi-0.dtd"
   xmlns="http://www.w3.org/2000/svg"
   xmlns:svg="http://www.w3.org/2000/svg">
  <sodipodi:namedview
     id="namedview1"
     pagecolor="#ffffff"
     bordercolor="#000000"
     borderopacity="0.25"
     inkscape:showpageshadow="2"
     inkscape:pageopacity="0.0"
     inkscape:pagecheckerboard="0"
     inkscape:deskcolor="#d1d1d1"
     inkscape:document-units="mm"
     inkscape:zoom="0.71891835"
     inkscape:cx="397.12437"
     inkscape:cy="561.25984"
     inkscape:window-width="1920"
     inkscape:window-height="1009"
     inkscape:window-x="-8"
     inkscape:window-y="-8"
     inkscape:window-maximized="1"
     inkscape:current-layer="layer1" />
  <defs
     id="defs1">
    <clipPath
       clipPathUnits="userSpaceOnUse"
       id="clipPath14">
      <path
         d="M 0,0 H 1366 V 768 H 0 Z"
         transform="translate(-487.86541,-699.88322)"
         id="path14" />
    </clipPath>
  </defs>
  <g
     inkscape:label="Capa 1"
     inkscape:groupmode="layer"
     id="layer1">
    <path
       id="path13"
       d="M 0,0 V 9.045 L 19.382,24.302 15.125,29.709 -2.497,15.838 H -15.838 L -9.962,9.962 -27.057,-3.494 c -6.997,7.047 -16.692,11.413 -27.409,11.413 -20.324,0 -36.97,-15.7 -38.501,-35.632 h -42.038 l -7.795,7.795 v -7.795 h -43.985 c -1.53,19.932 -18.176,35.632 -38.5,35.632 -9.428,0 -18.064,-3.382 -24.77,-8.993 l -17.315,17.315 v 9.06 l -4.53,-4.53 -11.346,11.346 -4.867,-4.867 11.346,-11.345 -6.271,-6.272 h 12.542 l 15.575,-15.574 c -5.611,-6.706 -8.992,-15.34 -8.992,-24.768 0,-9.486 3.425,-18.168 9.099,-24.892 l -16.758,-16.757 h -11.466 l 5.733,-5.733 -10.806,-10.807 4.866,-4.867 10.807,10.807 5.068,-5.069 v 10.139 l 17.438,17.437 c 6.689,-5.548 15.278,-8.886 24.647,-8.886 20.324,0 36.97,15.7 38.5,35.632 h 43.985 v -7.797 l 7.797,7.797 h 42.036 c 0.641,-8.342 3.926,-15.94 9.026,-21.958 l -16.61,-16.611 h -11.291 l 5.646,-5.645 -11.097,-11.097 4.866,-4.867 11.097,11.097 5.326,-5.326 v 10.652 l 16.955,16.955 c 6.679,-5.517 15.244,-8.832 24.583,-8.832 21.334,0 38.628,17.294 38.628,38.628 0,8.14 -2.524,15.687 -6.823,21.916 l 17.6,13.854 z"
       style="fill:#000000;fill-opacity:1;fill-rule:nonzero;stroke:none"
       transform="matrix(0.35277776,0,0,-0.35277776,110.28749,19.349107)"
       clip-path="url(#clipPath14)" />
  </g>
</svg>
