<?xml version="1.0" encoding="UTF-8" standalone="no"?>
<!-- Created with Inkscape (http://www.inkscape.org/) -->

<svg
   width="165mm"
   height="129mm"
   viewBox="0 0 165 129"
   version="1.1"
   id="svg1"
   inkscape:version="1.4.2 (f4327f4, 2025-05-13)"
   sodipodi:docname="gai-esp_item002_figura5.svg"
   xmlns:inkscape="http://www.inkscape.org/namespaces/inkscape"
   xmlns:sodipodi="http://sodipodi.sourceforge.net/DTD/sodipodi-0.dtd"
   xmlns="http://www.w3.org/2000/svg"
   xmlns:svg="http://www.w3.org/2000/svg">
  <sodipodi:namedview
     id="namedview1"
     pagecolor="#ffffff"
     bordercolor="#000000"
     borderopacity="0.25"
     inkscape:showpageshadow="2"
     inkscape:pageopacity="0.0"
     inkscape:pagecheckerboard="0"
     inkscape:deskcolor="#d1d1d1"
     inkscape:document-units="mm"
     inkscape:zoom="0.71891835"
     inkscape:cx="397.12437"
     inkscape:cy="561.25984"
     inkscape:window-width="1920"
     inkscape:window-height="1009"
     inkscape:window-x="-8"
     inkscape:window-y="-8"
     inkscape:window-maximized="1"
     inkscape:current-layer="layer1" />
  <defs
     id="defs1">
    <clipPath
       clipPathUnits="userSpaceOnUse"
       id="clipPath18">
      <path
         d="M 0,0 H 1366 V 768 H 0 Z"
         transform="translate(-569.52661,-414.10681)"
         id="path18" />
    </clipPath>
  </defs>
  <g
     inkscape:label="Capa 1"
     inkscape:groupmode="layer"
     id="layer1">
    <path
       id="path17"
       d="m 0,0 c -0.76,1.827 -2.858,2.691 -4.685,1.933 l -6.999,-2.912 -10.688,5.579 2.785,-8.865 -4.884,-2.032 c -4.916,7.882 -13.659,13.13 -23.631,13.13 -1.54,0 -3.05,-0.131 -4.522,-0.372 l -2.157,8.053 10.261,2.721 -13.013,7.559 -2.46,9.182 c 9.366,4.482 15.835,14.046 15.835,25.122 0,3.409 -0.615,6.673 -1.737,9.691 l 17.42,17.291 15.029,-0.856 -7.464,8.363 15.346,15.233 c 1.405,1.394 1.414,3.663 0.019,5.068 -1.394,1.405 -3.664,1.413 -5.067,0.019 l -15.077,-14.965 -5.608,6.283 -0.714,-12.557 -17.414,-17.284 c -5.057,6.995 -13.279,11.55 -22.569,11.55 -15.373,0 -27.836,-12.462 -27.836,-27.836 0,-0.819 0.043,-1.627 0.112,-2.427 L -210.079,19.118 c -3.223,6.539 -8.936,11.625 -15.901,14.028 l 6.324,30.774 12.442,8.757 -10.276,1.786 6.856,33.36 c 0.399,1.939 -0.851,3.833 -2.789,4.231 -1.947,0.404 -3.834,-0.85 -4.232,-2.789 l -6.9,-33.575 -9.07,1.577 7.271,-10.331 -6.649,-32.35 c -0.68,0.049 -1.364,0.083 -2.057,0.083 -9.597,0 -18.061,-4.858 -23.065,-12.249 l -40.928,20.505 4.601,7.555 -13.252,-3.221 -41.904,20.994 c 1.296,3.213 2.016,6.722 2.016,10.4 0,15.374 -12.464,27.836 -27.836,27.836 -7.799,0 -14.844,-3.211 -19.898,-8.378 l -10.704,8.767 -1.587,11.934 -5.002,-6.538 -8.313,6.808 c -1.531,1.253 -3.788,1.03 -5.044,-0.502 -1.254,-1.531 -1.029,-3.789 0.502,-5.043 l 8.497,-6.959 -5.069,-6.627 11.321,1.507 11.084,-9.078 c -2.302,-4.052 -3.623,-8.734 -3.623,-13.727 0,-2.619 0.369,-5.151 1.045,-7.553 l -9.461,-3.605 -13.293,4.847 3.921,-8.417 -8.968,-3.416 c -1.85,-0.705 -2.778,-2.775 -2.074,-4.625 0.546,-1.43 1.906,-2.309 3.351,-2.309 0.423,0 0.855,0.076 1.274,0.236 l 9.451,3.6 3.072,-6.595 3.287,9.018 12.26,4.67 c 4.475,-7.565 12.425,-12.823 21.654,-13.584 l 2.033,-32.851 -8.88,-0.912 9.412,-7.659 3.016,-48.725 c -12.94,-2.394 -22.743,-13.729 -22.743,-27.363 0,-15.374 12.463,-27.836 27.836,-27.836 9.58,0 18.028,4.841 23.037,12.209 l 17.614,-8.88 -5.655,-7.931 16.053,2.689 40.479,-20.408 c -0.359,-1.783 -0.548,-3.627 -0.548,-5.516 0,-13.969 10.29,-25.532 23.703,-27.529 v -19.067 l -9.818,0.1 9.818,-10.021 v -22.398 c 0,-1.979 1.605,-3.583 3.584,-3.583 1.979,0 3.584,1.604 3.584,3.583 v 22.528 l 9.818,9.619 -9.818,0.099 v 19.001 c 13.944,1.513 24.801,13.321 24.801,27.668 0,2.285 -0.281,4.503 -0.801,6.627 l 59.527,31.581 c 3.042,-12.075 13.963,-21.016 26.981,-21.016 15.373,0 27.837,12.462 27.837,27.836 0,7.113 -2.672,13.598 -7.062,18.516 l 13.84,7.343 5.428,-9.726 4.208,14.838 19.023,10.092 c 4.965,-7.624 13.559,-12.669 23.336,-12.669 15.372,0 27.836,12.463 27.836,27.837 0,2.848 -0.43,5.596 -1.225,8.184 l 4.062,1.689 3.092,-9.844 7.42,14.216 4.984,2.074 C -0.105,-3.925 0.76,-1.827 0,0 m -223.829,-108.907 c -4.728,8.629 -13.893,14.481 -24.426,14.481 -10.933,0 -20.389,-6.306 -24.942,-15.477 l -41.33,20.837 -1.987,11.864 -5.697,-7.99 -18.596,9.375 c 1.014,2.888 1.572,5.992 1.572,9.227 0,1.452 -0.112,2.878 -0.326,4.27 16.57,4.313 47.559,7.923 99.397,-0.569 l -2.777,-7.901 12.815,6.149 c 18.182,-3.358 38.725,-8.139 61.88,-14.776 z m 89.117,59.508 c -14.162,0 -25.846,-10.579 -27.6,-24.264 -24.711,7.216 -46.583,12.383 -65.897,15.981 l -5.845,12.181 -3.688,-10.497 c -53.693,8.964 -86.09,5.295 -103.847,0.61 -4.048,9.196 -12.924,15.78 -23.418,16.55 l -3.076,49.681 7.115,8.74 -7.607,-0.781 -2.009,32.443 c 7.116,1.25 13.304,5.194 17.461,10.752 l 43.943,-22.015 2.377,-9.785 4.01,6.585 41.454,-20.768 c -1.004,-2.876 -1.557,-5.963 -1.557,-9.181 0,-15.374 12.463,-27.837 27.836,-27.837 15.373,0 27.836,12.463 27.836,27.837 0,1.883 -0.189,3.722 -0.546,5.5 l 109.596,37.292 c 1.47,-4.063 3.862,-7.68 6.919,-10.612 l -14.63,-35.935 -13.813,-5.597 9.839,-4.164 -17.762,-43.63 c -2.264,0.595 -4.64,0.914 -7.091,0.914 m 58.774,28.395 c 0,-3.04 0.494,-5.962 1.394,-8.701 l -21.375,-11.34 -11.816,3.351 4.143,-7.422 -16.236,-8.614 c -0.382,0.242 -0.763,0.484 -1.157,0.708 l 17.728,43.545 8.246,-3.49 -4.822,11.901 14.537,35.706 c 3.952,-2.154 8.484,-3.379 13.302,-3.379 1.769,0 3.498,0.173 5.176,0.489 l 2.78,-10.38 -6.393,-11.008 8.721,2.314 2.218,-8.281 C -69.184,0.041 -75.938,-9.689 -75.938,-21.004"
       style="fill:#1c1c1c;fill-opacity:1;fill-rule:nonzero;stroke:none"
       transform="matrix(0.35277776,0,0,-0.35277776,158.53796,49.29803)"
       clip-path="url(#clipPath18)" />
  </g>
</svg>
